<svg viewBox="0 0 700 700" height="700" width="700" xmlns="http://www.w3.org/2000/svg" version="1.1"><g transform-origin="center" transform="scale(1, 1) rotate(0)"><rect x="0" y="0" width="700" height="700" fill="#342244ff"></rect><linearGradient id="linear-gradient-r0"><stop offset="0%" stop-color="#4d3664" stop-opacity="100%"></stop><stop offset="100%" stop-color="#bab5f6" stop-opacity="100%"></stop></linearGradient><filter id="shadow-r0" x="0" width="100%" y="-20%" height="150%"><feDropShadow dx="0" dy="0" stdDeviation="10" flood-color="#00000061"></feDropShadow></filter><path d="M0 0 0,490.5280598916579 C 35,490.10266035438207 105,482.656376204531 175,488.4010622052786 C 245,494.1457482060262 280,520.1751967052309 350,519.2514898953959 C 420,518.327783085561 455,495.8518455960633 525,483.7825281561042 C 595,471.7132107161451 665,463.8804277877013 700,458.9049026956006 L700 700 L0 700Z" fill="none" stroke-linecap="round" filter="url(#shadow-r0)" stroke-width="1" style="transition: all 0.4s cubic-bezier(0.16, 1, 0.3, 1) 0s; fill: url(&quot;#linear-gradient-r0&quot;);"></path><path d="M0 0 0,595.7419549976476 C 35,603.2681032912806 105,634.4994157613255 175,633.3726964658126 C 245,632.2459771702997 280,604.8302731995936 350,590.1083585200831 C 420,575.3864438405726 455,584.8517189056147 525,559.76312306826 C 595,534.6745272309054 665,483.68492808029987 700,464.66537933330983 L700 700 L0 700Z" fill="none" stroke-linecap="round" filter="url(#shadow-r0)" stroke-width="1" style="transition: all 0.4s cubic-bezier(0.16, 1, 0.3, 1) 0s; fill: url(&quot;#linear-gradient-r0&quot;);"></path><path d="M0 0 0,747.4939030362293 C 35,737.2819602057958 105,713.8087008031241 175,696.4341888840621 C 245,679.0596769650001 280,690.2304069967165 350,660.6213434409195 C 420,631.0122798851226 455,564.5215840434345 525,548.3888711050773 C 595,532.2561581667202 665,573.6439972203225 700,579.9577787491338 L700 700 L0 700Z" fill="none" stroke-linecap="round" filter="url(#shadow-r0)" stroke-width="1" style="transition: all 0.4s cubic-bezier(0.16, 1, 0.3, 1) 0s; fill: url(&quot;#linear-gradient-r0&quot;);"></path></g></svg>