<svg viewBox="0 0 700 700" height="700" width="700" xmlns="http://www.w3.org/2000/svg" version="1.1"><rect x="0" y="0" width="700" height="700" fill="#342244ff"></rect><g transform-origin="350 350" transform="scale(1, 1)"><linearGradient id="linear-gradient-r7"><stop offset="0%" stop-color="#bab5f6" stop-opacity="100%"></stop><stop offset="100%" stop-color="#4d3664" stop-opacity="100%"></stop></linearGradient><filter id="shadow-r7" x="-20%" width="150%" y="-20%" height="150%"><feDropShadow dx="0" dy="0" stdDeviation="10" flood-color="#00000061"></feDropShadow></filter><path d="M0 0 0,437.49464491704487 C 28.457595116452623,419.0533110500885 95.39175256279142,385.89068154620037 142.28797558226313,345.28797558226313 C 189.18419860173483,304.68526961832583 206.9497872713752,288.14978727137515 234.48111509735853,234.48111509735853 C 262.0124429233419,180.8124429233419 248.21544038758304,123.84083773165167 279.94461471217994,76.94461471217994 C 311.6737890367769,30.04839169270823 370.4905123187105,15.388922942435995 393.12698672034315,0 L0 0Z" fill="none" stroke-linecap="round" filter="url(#shadow-r7)" stroke-width="1" style="transition: all 0.4s cubic-bezier(0.16, 1, 0.3, 1) 0s; fill: url(&quot;#linear-gradient-r7&quot;);"></path></g><g transform-origin="350 350" transform="scale(-1, -1)"><linearGradient id="linear-gradient-r7"><stop offset="0%" stop-color="#bab5f6" stop-opacity="100%"></stop><stop offset="100%" stop-color="#4d3664" stop-opacity="100%"></stop></linearGradient><filter id="shadow-r7" x="-20%" width="150%" y="-20%" height="150%"><feDropShadow dx="0" dy="0" stdDeviation="10" flood-color="#00000061"></feDropShadow></filter><path d="M0 0 0,384.76676882730806 C 18.175662240114374,366.5890773019608 50.28480918576474,330.2381629512264 90.87831120057186,293.8783112005719 C 131.47181321537897,257.5184594499174 155.704779609122,236.90477960912202 202.96751007403557,202.96751007403557 C 250.23024053894915,169.03024053894913 285.05147290938226,164.78546553994684 327.1919635251397,124.19196352513973 C 369.3324541408972,83.59846151033261 396.3743632272864,24.838392705027946 413.6699631528231,0 L0 0Z" fill="none" stroke-linecap="round" filter="url(#shadow-r7)" stroke-width="1" style="transition: all 0.4s cubic-bezier(0.16, 1, 0.3, 1) 0s; fill: url(&quot;#linear-gradient-r7&quot;);"></path></g></svg>