<svg width="513" height="286" viewBox="0 0 513 286" fill="none" xmlns="http://www.w3.org/2000/svg">
<rect width="513" height="286" fill="white"/>
<rect width="513" height="286" rx="25" fill="#EAEAEA"/>
<path d="M294 131.321C294 129.115 294 128.011 293.551 127.5C293.161 127.057 292.576 126.821 291.978 126.867C291.288 126.92 290.485 127.7 288.879 129.261L275.25 142.5L288.879 155.739C290.485 157.3 291.288 158.08 291.978 158.133C292.576 158.178 293.161 157.943 293.551 157.5C294 156.989 294 155.885 294 153.678V131.321Z" stroke="#00B9BC" stroke-width="9.07097" stroke-linecap="round" stroke-linejoin="round"/>
<path d="M219 134.486C219 128.365 219 125.305 220.226 122.967C221.305 120.911 223.026 119.239 225.143 118.191C227.549 117 230.699 117 237 117H257.25C263.551 117 266.701 117 269.108 118.191C271.224 119.239 272.945 120.911 274.024 122.967C275.25 125.305 275.25 128.365 275.25 134.486V150.514C275.25 156.635 275.25 159.695 274.024 162.033C272.945 164.089 271.224 165.761 269.108 166.809C266.701 168 263.551 168 257.25 168H237C230.699 168 227.549 168 225.143 166.809C223.026 165.761 221.305 164.089 220.226 162.033C219 159.695 219 156.635 219 150.514V134.486Z" stroke="#00B9BC" stroke-width="9.07097" stroke-linecap="round" stroke-linejoin="round"/>
</svg>
